G04*
G04 #@! TF.GenerationSoftware,Altium Limited,Altium Designer,24.3.1 (35)*
G04*
G04 Layer_Physical_Order=2*
G04 Layer_Color=16711680*
%FSLAX44Y44*%
%MOMM*%
G71*
G04*
G04 #@! TF.SameCoordinates,746B9C55-4A18-4BC9-BEBC-B74D21388F8E*
G04*
G04*
G04 #@! TF.FilePolarity,Positive*
G04*
G01*
G75*
%ADD14C,1.6650*%
%ADD15R,1.6650X1.6650*%
%ADD16R,1.2000X1.2000*%
%ADD17C,1.2000*%
%ADD18R,1.5500X1.5500*%
%ADD19C,1.5500*%
%ADD20P,1.6971X4X385.0*%
%ADD21P,2.1920X4X385.0*%
%ADD22R,1.3000X1.3000*%
%ADD23C,1.3000*%
%ADD24R,3.0000X2.0000*%
%ADD25R,1.4140X1.4140*%
%ADD26C,1.4140*%
%ADD27P,2.3547X4X110.0*%
%ADD28P,2.3547X4X160.0*%
%ADD29C,1.2500*%
%ADD30P,1.7678X4X385.0*%
%ADD31P,1.6971X4X245.0*%
%ADD32R,1.2500X1.2500*%
%ADD33R,1.2500X1.2500*%
%ADD34C,0.5080*%
%ADD36C,0.2032*%
%ADD37C,0.6000*%
G36*
X309281Y284823D02*
X312985Y283700D01*
X316399Y281875D01*
X319391Y279420D01*
X321846Y276428D01*
X322455Y275288D01*
X322455Y275288D01*
X323115Y274202D01*
X476695Y8194D01*
X476695Y8194D01*
X476670Y8180D01*
X477886Y5906D01*
X479009Y2201D01*
X479389Y-1650D01*
X479009Y-5502D01*
X477886Y-9206D01*
X476670Y-11480D01*
X476695Y-11495D01*
X476695Y-11495D01*
X323115Y-277503D01*
X322455Y-278589D01*
X322455Y-278589D01*
X321846Y-279729D01*
X319391Y-282721D01*
X316399Y-285176D01*
X312985Y-287001D01*
X309281Y-288124D01*
X305429Y-288504D01*
X301577Y-288124D01*
X298699Y-287251D01*
X298695Y-287260D01*
X-95541Y-143770D01*
X-95821Y-143708D01*
X-96860Y-143277D01*
X-103016Y-141799D01*
X-109328Y-141303D01*
Y-141339D01*
X-224038D01*
X-224283Y-141371D01*
X-227890Y-141016D01*
X-231594Y-139892D01*
X-235008Y-138068D01*
X-238000Y-135612D01*
X-240455Y-132620D01*
X-242280Y-129206D01*
X-243404Y-125502D01*
X-243660Y-122894D01*
X-243727Y-121650D01*
X-243727Y-121650D01*
X-243727Y-120404D01*
Y117090D01*
X-243727Y117103D01*
X-243727Y118350D01*
X-243661Y119592D01*
X-243404Y122201D01*
X-242280Y125906D01*
X-240455Y129319D01*
X-238000Y132311D01*
X-235008Y134767D01*
X-233724Y135453D01*
X-232635Y134800D01*
Y116915D01*
X-222787D01*
X-222620Y115645D01*
X-225184Y114958D01*
X-227951Y113360D01*
X-230210Y111101D01*
X-231808Y108334D01*
X-232635Y105248D01*
Y102052D01*
X-231808Y98966D01*
X-230210Y96199D01*
X-227951Y93940D01*
X-225184Y92342D01*
X-222442Y91607D01*
Y90293D01*
X-225184Y89558D01*
X-227951Y87960D01*
X-230210Y85701D01*
X-231808Y82934D01*
X-232635Y79848D01*
Y76652D01*
X-231808Y73566D01*
X-230210Y70799D01*
X-227951Y68540D01*
X-225184Y66942D01*
X-222098Y66115D01*
X-218902D01*
X-215816Y66942D01*
X-213049Y68540D01*
X-210790Y70799D01*
X-209192Y73566D01*
X-208365Y76652D01*
Y79848D01*
X-209192Y82934D01*
X-210790Y85701D01*
X-213049Y87960D01*
X-215816Y89558D01*
X-218557Y90293D01*
Y91607D01*
X-215816Y92342D01*
X-213049Y93940D01*
X-210790Y96199D01*
X-209192Y98966D01*
X-208365Y102052D01*
Y105248D01*
X-209192Y108334D01*
X-210790Y111101D01*
X-213049Y113360D01*
X-215816Y114958D01*
X-218380Y115645D01*
X-218213Y116915D01*
X-213071D01*
X-198474Y102318D01*
Y-26118D01*
X-217021Y-44665D01*
X-232135D01*
Y-68935D01*
X-222287D01*
X-222120Y-70205D01*
X-224684Y-70892D01*
X-227451Y-72490D01*
X-229710Y-74749D01*
X-231308Y-77516D01*
X-232135Y-80602D01*
Y-83798D01*
X-231308Y-86884D01*
X-229710Y-89651D01*
X-227451Y-91910D01*
X-224684Y-93508D01*
X-221943Y-94243D01*
Y-95557D01*
X-224684Y-96292D01*
X-227451Y-97890D01*
X-229710Y-100149D01*
X-231308Y-102916D01*
X-232135Y-106002D01*
Y-109198D01*
X-231308Y-112284D01*
X-229710Y-115051D01*
X-227451Y-117310D01*
X-224684Y-118908D01*
X-221598Y-119735D01*
X-218402D01*
X-215316Y-118908D01*
X-212549Y-117310D01*
X-210290Y-115051D01*
X-208829Y-112521D01*
X-200938D01*
X-182979Y-130479D01*
X-181383Y-131546D01*
X-179500Y-131920D01*
X-126000D01*
X-124117Y-131546D01*
X-122521Y-130479D01*
X-84471Y-92429D01*
X-83404Y-90833D01*
X-83029Y-88950D01*
Y-65722D01*
X-81270Y-64706D01*
X-79244Y-62681D01*
X-77811Y-60199D01*
X-77070Y-57432D01*
Y-54568D01*
X-77811Y-51800D01*
X-79244Y-49320D01*
X-81270Y-47294D01*
X-83750Y-45862D01*
X-86518Y-45120D01*
X-89382D01*
X-92149Y-45862D01*
X-94630Y-47294D01*
X-96656Y-49320D01*
X-98089Y-51800D01*
X-98830Y-54568D01*
Y-57432D01*
X-98089Y-60199D01*
X-96656Y-62681D01*
X-94630Y-64706D01*
X-92871Y-65722D01*
Y-86912D01*
X-128038Y-122079D01*
X-177462D01*
X-195421Y-104121D01*
X-197017Y-103054D01*
X-198900Y-102679D01*
X-208829D01*
X-210290Y-100149D01*
X-212549Y-97890D01*
X-215316Y-96292D01*
X-218057Y-95557D01*
Y-94243D01*
X-215316Y-93508D01*
X-212549Y-91910D01*
X-210290Y-89651D01*
X-208829Y-87121D01*
X-186950D01*
X-185067Y-86746D01*
X-183471Y-85679D01*
X-141462Y-43671D01*
X-81838D01*
X-72904Y-52605D01*
X-73430Y-54568D01*
Y-57432D01*
X-72688Y-60199D01*
X-71256Y-62681D01*
X-69230Y-64706D01*
X-66750Y-66139D01*
X-63982Y-66880D01*
X-61118D01*
X-58351Y-66139D01*
X-55869Y-64706D01*
X-53844Y-62681D01*
X-52411Y-60199D01*
X-51670Y-57432D01*
Y-54568D01*
X-52411Y-51800D01*
X-53844Y-49320D01*
X-55869Y-47294D01*
X-58351Y-45862D01*
X-61118Y-45120D01*
X-63982D01*
X-65945Y-45646D01*
X-76321Y-35271D01*
X-77917Y-34204D01*
X-79800Y-33830D01*
X-143500D01*
X-145383Y-34204D01*
X-146979Y-35271D01*
X-188988Y-77279D01*
X-208829D01*
X-210290Y-74749D01*
X-212549Y-72490D01*
X-215316Y-70892D01*
X-217880Y-70205D01*
X-217713Y-68935D01*
X-207865D01*
Y-53821D01*
X-187422Y-33378D01*
X-186018Y-31278D01*
X-185526Y-28800D01*
Y105000D01*
X-186018Y107478D01*
X-187422Y109578D01*
X-208365Y130521D01*
Y138038D01*
X-109328D01*
Y138002D01*
X-103016Y138498D01*
X-96860Y139977D01*
X-95821Y140407D01*
X-95541Y140469D01*
X-47211Y158060D01*
X-46155Y157092D01*
X-46710Y155022D01*
Y151978D01*
X-45922Y149038D01*
X-44400Y146402D01*
X-42248Y144250D01*
X-39612Y142728D01*
X-36672Y141940D01*
X-33628D01*
X-30688Y142728D01*
X-28052Y144250D01*
X-25900Y146402D01*
X-25540Y147026D01*
X21000D01*
X23478Y147518D01*
X25578Y148922D01*
X62680Y186024D01*
X81639D01*
X83859Y179925D01*
X101001Y186164D01*
X102041Y185435D01*
Y176698D01*
X87312Y161968D01*
X68130D01*
X67348Y162750D01*
X64712Y164272D01*
X61772Y165060D01*
X58728D01*
X55788Y164272D01*
X53152Y162750D01*
X51000Y160598D01*
X49478Y157962D01*
X48690Y155022D01*
Y151978D01*
X49478Y149038D01*
X51000Y146402D01*
X53152Y144250D01*
X55788Y142728D01*
X58728Y141940D01*
X61772D01*
X64712Y142728D01*
X67348Y144250D01*
X69500Y146402D01*
X71011Y149019D01*
X89994D01*
X92471Y149512D01*
X94572Y150916D01*
X113094Y169438D01*
X114497Y171538D01*
X114990Y174016D01*
Y191896D01*
X115201Y192043D01*
X115889Y192864D01*
X137660D01*
X140690Y189834D01*
Y188728D01*
X141478Y185788D01*
X143000Y183152D01*
X145152Y181000D01*
X147788Y179478D01*
X150728Y178690D01*
X153772D01*
X156712Y179478D01*
X159348Y181000D01*
X161500Y183152D01*
X163022Y185788D01*
X163810Y188728D01*
Y191772D01*
X163022Y194712D01*
X161500Y197348D01*
X159348Y199500D01*
X156712Y201022D01*
X153772Y201810D01*
X150728D01*
X147809Y201028D01*
X144920Y203917D01*
X142819Y205320D01*
X140342Y205813D01*
X115958D01*
X115811Y206023D01*
X113832Y207684D01*
X112605Y208256D01*
X112887Y209526D01*
X169474D01*
X171952Y210018D01*
X172628Y210470D01*
X173748Y209871D01*
Y118600D01*
Y113254D01*
X167712Y107218D01*
X167482Y107280D01*
X164618D01*
X161850Y106538D01*
X159369Y105106D01*
X157344Y103081D01*
X155912Y100599D01*
X155170Y97832D01*
Y94968D01*
X155912Y92200D01*
X157344Y89719D01*
X159369Y87694D01*
X161850Y86262D01*
X164618Y85520D01*
X167482D01*
X170250Y86262D01*
X172731Y87694D01*
X174756Y89719D01*
X176189Y92200D01*
X176930Y94968D01*
Y97832D01*
X176868Y98062D01*
X180445Y101639D01*
X181461Y100859D01*
X181311Y100599D01*
X180570Y97832D01*
Y94968D01*
X181311Y92200D01*
X182744Y89719D01*
X184769Y87694D01*
X187250Y86262D01*
X190018Y85520D01*
X192882D01*
X195650Y86262D01*
X198130Y87694D01*
X200156Y89719D01*
X201588Y92200D01*
X202330Y94968D01*
Y97832D01*
X201588Y100599D01*
X200156Y103081D01*
X198130Y105106D01*
X195650Y106538D01*
X192882Y107280D01*
X190018D01*
X187250Y106538D01*
X186340Y106013D01*
X185449Y106965D01*
X186203Y108094D01*
X186696Y110572D01*
Y112126D01*
X242890D01*
X243250Y111502D01*
X245402Y109350D01*
X248038Y107828D01*
X250978Y107040D01*
X254022D01*
X256962Y107828D01*
X259598Y109350D01*
X261750Y111502D01*
X263272Y114138D01*
X264060Y117078D01*
Y120122D01*
X263272Y123062D01*
X261750Y125698D01*
X259598Y127850D01*
X256962Y129372D01*
X254022Y130160D01*
X250978D01*
X248038Y129372D01*
X245402Y127850D01*
X243250Y125698D01*
X242890Y125074D01*
X186696D01*
Y218665D01*
X192796Y220885D01*
X190983Y225865D01*
X192060Y226619D01*
X193699Y225243D01*
X196040Y224152D01*
X198584Y223703D01*
X199652Y223797D01*
X208526Y214923D01*
Y199860D01*
X207902Y199500D01*
X205750Y197348D01*
X204228Y194712D01*
X203440Y191772D01*
Y188728D01*
X204228Y185788D01*
X205750Y183152D01*
X207902Y181000D01*
X210538Y179478D01*
X213478Y178690D01*
X216522D01*
X219462Y179478D01*
X222098Y181000D01*
X224250Y183152D01*
X224610Y183776D01*
X228750D01*
X231228Y184268D01*
X233328Y185672D01*
X250283Y202626D01*
X250978Y202440D01*
X254022D01*
X256962Y203228D01*
X259598Y204750D01*
X261750Y206902D01*
X263272Y209538D01*
X264060Y212478D01*
Y215522D01*
X263272Y218462D01*
X261750Y221098D01*
X259598Y223250D01*
X256962Y224772D01*
X254022Y225560D01*
X250978D01*
X248038Y224772D01*
X245402Y223250D01*
X243250Y221098D01*
X241728Y218462D01*
X240940Y215522D01*
Y212478D01*
X241126Y211782D01*
X226068Y196724D01*
X224610D01*
X224250Y197348D01*
X222098Y199500D01*
X221474Y199860D01*
Y217604D01*
X220982Y220082D01*
X219578Y222182D01*
X208857Y232904D01*
X208901Y233157D01*
X208676Y235730D01*
X207792Y238157D01*
X206311Y240273D01*
X204332Y241934D01*
X201991Y243025D01*
X199447Y243474D01*
X196874Y243249D01*
X194447Y242365D01*
X192331Y240884D01*
X190671Y238905D01*
X189579Y236564D01*
X189207Y234456D01*
X187898Y234342D01*
X186085Y239322D01*
X167648Y232611D01*
X170125Y225807D01*
X166792Y222474D01*
X133424D01*
X133204Y223725D01*
X298695Y283959D01*
X298699Y283950D01*
X301577Y284823D01*
X305429Y285203D01*
X309281Y284823D01*
D02*
G37*
%LPC*%
G36*
X153772Y175810D02*
X150728D01*
X147788Y175022D01*
X145152Y173500D01*
X143000Y171348D01*
X142640Y170724D01*
X137000D01*
X134522Y170232D01*
X132422Y168828D01*
X107672Y144078D01*
X106268Y141978D01*
X105776Y139500D01*
Y133253D01*
X104200Y131677D01*
X102876Y129383D01*
X102190Y126824D01*
Y124176D01*
X102876Y121617D01*
X104200Y119323D01*
X106073Y117450D01*
X108367Y116126D01*
X110926Y115440D01*
X113574D01*
X116133Y116126D01*
X118427Y117450D01*
X120300Y119323D01*
X121624Y121617D01*
X122310Y124176D01*
Y126824D01*
X121624Y129383D01*
X120300Y131677D01*
X118724Y133253D01*
Y136818D01*
X139682Y157776D01*
X142640D01*
X143000Y157152D01*
X145152Y155000D01*
X147788Y153478D01*
X150728Y152690D01*
X153772D01*
X156712Y153478D01*
X159348Y155000D01*
X161500Y157152D01*
X163022Y159788D01*
X163810Y162728D01*
Y165772D01*
X163022Y168712D01*
X161500Y171348D01*
X159348Y173500D01*
X156712Y175022D01*
X153772Y175810D01*
D02*
G37*
G36*
X216522Y175810D02*
X213478D01*
X210538Y175022D01*
X207902Y173500D01*
X205750Y171348D01*
X204228Y168712D01*
X203440Y165772D01*
Y162728D01*
X204228Y159788D01*
X205750Y157152D01*
X207902Y155000D01*
X210538Y153478D01*
X213478Y152690D01*
X216522D01*
X219462Y153478D01*
X222098Y155000D01*
X224250Y157152D01*
X224610Y157776D01*
X275318D01*
X279440Y153654D01*
Y151426D01*
X280126Y148867D01*
X281450Y146573D01*
X283323Y144700D01*
X285617Y143376D01*
X288176Y142690D01*
X290824D01*
X293383Y143376D01*
X295677Y144700D01*
X297550Y146573D01*
X298874Y148867D01*
X299560Y151426D01*
Y154074D01*
X298874Y156633D01*
X297550Y158927D01*
X295677Y160800D01*
X293383Y162124D01*
X290824Y162810D01*
X288596D01*
X282578Y168828D01*
X280478Y170232D01*
X278000Y170725D01*
X224610D01*
X224250Y171348D01*
X222098Y173500D01*
X219462Y175022D01*
X216522Y175810D01*
D02*
G37*
G36*
X22310Y135560D02*
X2190D01*
Y115440D01*
X15351D01*
X22080Y108712D01*
Y105017D01*
X20906Y104530D01*
X20331Y105106D01*
X17850Y106538D01*
X15082Y107280D01*
X12218D01*
X9451Y106538D01*
X6970Y105106D01*
X4944Y103081D01*
X3512Y100599D01*
X2770Y97832D01*
Y94968D01*
X3512Y92200D01*
X4944Y89719D01*
X6970Y87694D01*
X9451Y86262D01*
X12218Y85520D01*
X15082D01*
X17850Y86262D01*
X20331Y87694D01*
X20906Y88270D01*
X22080Y87783D01*
Y32250D01*
X22454Y30367D01*
X23521Y28771D01*
X104896Y-52605D01*
X104370Y-54568D01*
Y-57432D01*
X105112Y-60199D01*
X106544Y-62681D01*
X108569Y-64706D01*
X111051Y-66139D01*
X113818Y-66880D01*
X116682D01*
X119450Y-66139D01*
X121931Y-64706D01*
X123956Y-62681D01*
X125388Y-60199D01*
X126130Y-57432D01*
Y-54568D01*
X125388Y-51800D01*
X123956Y-49320D01*
X121931Y-47294D01*
X119450Y-45862D01*
X116682Y-45120D01*
X113818D01*
X111855Y-45646D01*
X31920Y34288D01*
Y86487D01*
X33191Y87220D01*
X34850Y86262D01*
X37618Y85520D01*
X40482D01*
X43250Y86262D01*
X45731Y87694D01*
X47756Y89719D01*
X49188Y92200D01*
X49930Y94968D01*
Y97832D01*
X49188Y100599D01*
X47756Y103081D01*
X45731Y105106D01*
X43250Y106538D01*
X40482Y107280D01*
X37618D01*
X34850Y106538D01*
X33191Y105580D01*
X31920Y106313D01*
Y110750D01*
X31546Y112633D01*
X30479Y114229D01*
X22310Y122399D01*
Y135560D01*
D02*
G37*
G36*
X243682Y107280D02*
X240818D01*
X238050Y106538D01*
X235569Y105106D01*
X233544Y103081D01*
X232111Y100599D01*
X231370Y97832D01*
Y94968D01*
X232111Y92200D01*
X233544Y89719D01*
X235569Y87694D01*
X238050Y86262D01*
X240818Y85520D01*
X243682D01*
X246450Y86262D01*
X248930Y87694D01*
X250956Y89719D01*
X252388Y92200D01*
X253130Y94968D01*
Y97832D01*
X252388Y100599D01*
X250956Y103081D01*
X248930Y105106D01*
X246450Y106538D01*
X243682Y107280D01*
D02*
G37*
G36*
X218282D02*
X215418D01*
X212651Y106538D01*
X210170Y105106D01*
X208144Y103081D01*
X206712Y100599D01*
X205970Y97832D01*
Y94968D01*
X206712Y92200D01*
X208144Y89719D01*
X210170Y87694D01*
X212651Y86262D01*
X215418Y85520D01*
X218282D01*
X221049Y86262D01*
X223531Y87694D01*
X225556Y89719D01*
X226989Y92200D01*
X227730Y94968D01*
Y97832D01*
X226989Y100599D01*
X225556Y103081D01*
X223531Y105106D01*
X221049Y106538D01*
X218282Y107280D01*
D02*
G37*
G36*
X142082D02*
X139218D01*
X136451Y106538D01*
X133969Y105106D01*
X131944Y103081D01*
X130512Y100599D01*
X129770Y97832D01*
Y94968D01*
X130512Y92200D01*
X131944Y89719D01*
X133969Y87694D01*
X136451Y86262D01*
X139218Y85520D01*
X142082D01*
X144850Y86262D01*
X147331Y87694D01*
X149356Y89719D01*
X150788Y92200D01*
X151530Y94968D01*
Y97832D01*
X150788Y100599D01*
X149356Y103081D01*
X147331Y105106D01*
X144850Y106538D01*
X142082Y107280D01*
D02*
G37*
G36*
X116682D02*
X113818D01*
X111051Y106538D01*
X108569Y105106D01*
X106544Y103081D01*
X105112Y100599D01*
X104370Y97832D01*
Y94968D01*
X105112Y92200D01*
X106544Y89719D01*
X108569Y87694D01*
X111051Y86262D01*
X113818Y85520D01*
X116682D01*
X119450Y86262D01*
X121931Y87694D01*
X123956Y89719D01*
X125388Y92200D01*
X126130Y94968D01*
Y97832D01*
X125388Y100599D01*
X123956Y103081D01*
X121931Y105106D01*
X119450Y106538D01*
X116682Y107280D01*
D02*
G37*
G36*
X91282D02*
X88418D01*
X85651Y106538D01*
X83169Y105106D01*
X81144Y103081D01*
X79711Y100599D01*
X78970Y97832D01*
Y94968D01*
X79711Y92200D01*
X81144Y89719D01*
X83169Y87694D01*
X85651Y86262D01*
X88418Y85520D01*
X91282D01*
X94050Y86262D01*
X96531Y87694D01*
X98556Y89719D01*
X99988Y92200D01*
X100730Y94968D01*
Y97832D01*
X99988Y100599D01*
X98556Y103081D01*
X96531Y105106D01*
X94050Y106538D01*
X91282Y107280D01*
D02*
G37*
G36*
X65882D02*
X63018D01*
X60251Y106538D01*
X57769Y105106D01*
X55744Y103081D01*
X54311Y100599D01*
X53570Y97832D01*
Y94968D01*
X54311Y92200D01*
X55744Y89719D01*
X57769Y87694D01*
X60251Y86262D01*
X63018Y85520D01*
X65882D01*
X68650Y86262D01*
X71130Y87694D01*
X73156Y89719D01*
X74588Y92200D01*
X75330Y94968D01*
Y97832D01*
X74588Y100599D01*
X73156Y103081D01*
X71130Y105106D01*
X68650Y106538D01*
X65882Y107280D01*
D02*
G37*
G36*
X-10318D02*
X-13182D01*
X-15949Y106538D01*
X-18431Y105106D01*
X-20456Y103081D01*
X-21888Y100599D01*
X-22630Y97832D01*
Y94968D01*
X-21888Y92200D01*
X-20456Y89719D01*
X-18431Y87694D01*
X-15949Y86262D01*
X-13182Y85520D01*
X-10318D01*
X-7551Y86262D01*
X-5070Y87694D01*
X-3044Y89719D01*
X-1611Y92200D01*
X-870Y94968D01*
Y97832D01*
X-1611Y100599D01*
X-3044Y103081D01*
X-5070Y105106D01*
X-7551Y106538D01*
X-10318Y107280D01*
D02*
G37*
G36*
X-35718D02*
X-38582D01*
X-41350Y106538D01*
X-43830Y105106D01*
X-45856Y103081D01*
X-47288Y100599D01*
X-48030Y97832D01*
Y94968D01*
X-47288Y92200D01*
X-45856Y89719D01*
X-43830Y87694D01*
X-41350Y86262D01*
X-38582Y85520D01*
X-35718D01*
X-32950Y86262D01*
X-30470Y87694D01*
X-28444Y89719D01*
X-27011Y92200D01*
X-26270Y94968D01*
Y97832D01*
X-27011Y100599D01*
X-28444Y103081D01*
X-30470Y105106D01*
X-32950Y106538D01*
X-35718Y107280D01*
D02*
G37*
G36*
X-61118D02*
X-63982D01*
X-66750Y106538D01*
X-69230Y105106D01*
X-71256Y103081D01*
X-72688Y100599D01*
X-73430Y97832D01*
Y94968D01*
X-72688Y92200D01*
X-71256Y89719D01*
X-69230Y87694D01*
X-66750Y86262D01*
X-63982Y85520D01*
X-61118D01*
X-58351Y86262D01*
X-55869Y87694D01*
X-53844Y89719D01*
X-52411Y92200D01*
X-51670Y94968D01*
Y97832D01*
X-52411Y100599D01*
X-53844Y103081D01*
X-55869Y105106D01*
X-58351Y106538D01*
X-61118Y107280D01*
D02*
G37*
G36*
X-86518D02*
X-89382D01*
X-92149Y106538D01*
X-94630Y105106D01*
X-96656Y103081D01*
X-98089Y100599D01*
X-98830Y97832D01*
Y94968D01*
X-98089Y92200D01*
X-96656Y89719D01*
X-94630Y87694D01*
X-92149Y86262D01*
X-89382Y85520D01*
X-86518D01*
X-83750Y86262D01*
X-81270Y87694D01*
X-79244Y89719D01*
X-77811Y92200D01*
X-77070Y94968D01*
Y97832D01*
X-77811Y100599D01*
X-79244Y103081D01*
X-81270Y105106D01*
X-83750Y106538D01*
X-86518Y107280D01*
D02*
G37*
G36*
X-111918D02*
X-114782D01*
X-117549Y106538D01*
X-120030Y105106D01*
X-122056Y103081D01*
X-123489Y100599D01*
X-124230Y97832D01*
Y94968D01*
X-123704Y93005D01*
X-133788Y82921D01*
X-160040D01*
X-160569Y83449D01*
X-162121Y84346D01*
X-163853Y84810D01*
X-165646D01*
X-167379Y84346D01*
X-168931Y83449D01*
X-170199Y82181D01*
X-171096Y80629D01*
X-171560Y78896D01*
Y77104D01*
X-171096Y75371D01*
X-170199Y73818D01*
X-168931Y72551D01*
X-167379Y71654D01*
X-165646Y71190D01*
X-163853D01*
X-162121Y71654D01*
X-160569Y72551D01*
X-160040Y73080D01*
X-131750D01*
X-129867Y73454D01*
X-128271Y74521D01*
X-116745Y86046D01*
X-114782Y85520D01*
X-111918D01*
X-109150Y86262D01*
X-106670Y87694D01*
X-104644Y89719D01*
X-103211Y92200D01*
X-102470Y94968D01*
Y97832D01*
X-103211Y100599D01*
X-104644Y103081D01*
X-106670Y105106D01*
X-109150Y106538D01*
X-111918Y107280D01*
D02*
G37*
G36*
X139927Y57360D02*
X102307D01*
Y29740D01*
X139927D01*
Y57360D01*
D02*
G37*
G36*
X-128073D02*
X-165693D01*
Y29740D01*
X-128073D01*
Y57360D01*
D02*
G37*
G36*
X-210175Y20800D02*
X-229795D01*
Y1180D01*
X-224495D01*
X-224155Y-90D01*
X-226008Y-1160D01*
X-227835Y-2986D01*
X-229126Y-5223D01*
X-229795Y-7718D01*
Y-10301D01*
X-229126Y-12796D01*
X-227835Y-15033D01*
X-226008Y-16860D01*
X-223771Y-18151D01*
X-221276Y-18820D01*
X-218693D01*
X-216198Y-18151D01*
X-213961Y-16860D01*
X-212135Y-15033D01*
X-210843Y-12796D01*
X-210175Y-10301D01*
Y-7718D01*
X-210843Y-5223D01*
X-212135Y-2986D01*
X-213961Y-1160D01*
X-215815Y-90D01*
X-215474Y1180D01*
X-210175D01*
Y20800D01*
D02*
G37*
G36*
X299560Y62810D02*
X279440D01*
Y42690D01*
X284580D01*
Y26538D01*
X232712Y-25329D01*
X167483D01*
X165600Y-25704D01*
X164004Y-26771D01*
X144890Y-45885D01*
X144850Y-45862D01*
X142082Y-45120D01*
X139218D01*
X136451Y-45862D01*
X133969Y-47294D01*
X131944Y-49320D01*
X130512Y-51800D01*
X129770Y-54568D01*
Y-57432D01*
X130512Y-60199D01*
X131944Y-62681D01*
X133969Y-64706D01*
X136451Y-66139D01*
X139218Y-66880D01*
X142082D01*
X144850Y-66139D01*
X147331Y-64706D01*
X149356Y-62681D01*
X150788Y-60199D01*
X151530Y-57432D01*
Y-54568D01*
X151233Y-53459D01*
X169521Y-35171D01*
X234750D01*
X236633Y-34796D01*
X238229Y-33729D01*
X292979Y21021D01*
X294046Y22617D01*
X294421Y24500D01*
Y42690D01*
X299560D01*
Y62810D01*
D02*
G37*
G36*
X253130Y-45120D02*
X231370D01*
Y-66880D01*
X253130D01*
Y-45120D01*
D02*
G37*
G36*
X218282D02*
X215418D01*
X212651Y-45862D01*
X210170Y-47294D01*
X208144Y-49320D01*
X206712Y-51800D01*
X205970Y-54568D01*
Y-57432D01*
X206712Y-60199D01*
X208144Y-62681D01*
X210170Y-64706D01*
X212651Y-66139D01*
X215418Y-66880D01*
X218282D01*
X221049Y-66139D01*
X223531Y-64706D01*
X225556Y-62681D01*
X226989Y-60199D01*
X227730Y-57432D01*
Y-54568D01*
X226989Y-51800D01*
X225556Y-49320D01*
X223531Y-47294D01*
X221049Y-45862D01*
X218282Y-45120D01*
D02*
G37*
G36*
X192882D02*
X190018D01*
X187250Y-45862D01*
X184769Y-47294D01*
X182744Y-49320D01*
X181311Y-51800D01*
X180570Y-54568D01*
Y-57432D01*
X181311Y-60199D01*
X182744Y-62681D01*
X184769Y-64706D01*
X187250Y-66139D01*
X190018Y-66880D01*
X192882D01*
X195650Y-66139D01*
X198130Y-64706D01*
X200156Y-62681D01*
X201588Y-60199D01*
X202330Y-57432D01*
Y-54568D01*
X201588Y-51800D01*
X200156Y-49320D01*
X198130Y-47294D01*
X195650Y-45862D01*
X192882Y-45120D01*
D02*
G37*
G36*
X167482D02*
X164618D01*
X161850Y-45862D01*
X159369Y-47294D01*
X157344Y-49320D01*
X155912Y-51800D01*
X155170Y-54568D01*
Y-57432D01*
X155912Y-60199D01*
X157344Y-62681D01*
X159369Y-64706D01*
X161850Y-66139D01*
X164618Y-66880D01*
X167482D01*
X170250Y-66139D01*
X172731Y-64706D01*
X174756Y-62681D01*
X176189Y-60199D01*
X176930Y-57432D01*
Y-54568D01*
X176189Y-51800D01*
X174756Y-49320D01*
X172731Y-47294D01*
X170250Y-45862D01*
X167482Y-45120D01*
D02*
G37*
G36*
X91282D02*
X88418D01*
X85651Y-45862D01*
X83169Y-47294D01*
X81144Y-49320D01*
X79711Y-51800D01*
X78970Y-54568D01*
Y-57432D01*
X79711Y-60199D01*
X81144Y-62681D01*
X83169Y-64706D01*
X85651Y-66139D01*
X88418Y-66880D01*
X91282D01*
X94050Y-66139D01*
X96531Y-64706D01*
X98556Y-62681D01*
X99988Y-60199D01*
X100730Y-57432D01*
Y-54568D01*
X99988Y-51800D01*
X98556Y-49320D01*
X96531Y-47294D01*
X94050Y-45862D01*
X91282Y-45120D01*
D02*
G37*
G36*
X65882D02*
X63018D01*
X60251Y-45862D01*
X57769Y-47294D01*
X55744Y-49320D01*
X54311Y-51800D01*
X53570Y-54568D01*
Y-57432D01*
X54311Y-60199D01*
X55744Y-62681D01*
X57769Y-64706D01*
X60251Y-66139D01*
X63018Y-66880D01*
X65882D01*
X68650Y-66139D01*
X71130Y-64706D01*
X73156Y-62681D01*
X74588Y-60199D01*
X75330Y-57432D01*
Y-54568D01*
X74588Y-51800D01*
X73156Y-49320D01*
X71130Y-47294D01*
X68650Y-45862D01*
X65882Y-45120D01*
D02*
G37*
G36*
X40482D02*
X37618D01*
X34850Y-45862D01*
X32369Y-47294D01*
X30344Y-49320D01*
X28911Y-51800D01*
X28170Y-54568D01*
Y-57432D01*
X28911Y-60199D01*
X30344Y-62681D01*
X32369Y-64706D01*
X34850Y-66139D01*
X37618Y-66880D01*
X40482D01*
X43250Y-66139D01*
X45731Y-64706D01*
X47756Y-62681D01*
X49188Y-60199D01*
X49930Y-57432D01*
Y-54568D01*
X49188Y-51800D01*
X47756Y-49320D01*
X45731Y-47294D01*
X43250Y-45862D01*
X40482Y-45120D01*
D02*
G37*
G36*
X15082D02*
X12218D01*
X9451Y-45862D01*
X6970Y-47294D01*
X4944Y-49320D01*
X3512Y-51800D01*
X2770Y-54568D01*
Y-57432D01*
X3512Y-60199D01*
X4944Y-62681D01*
X6970Y-64706D01*
X9451Y-66139D01*
X12218Y-66880D01*
X15082D01*
X17850Y-66139D01*
X20331Y-64706D01*
X22356Y-62681D01*
X23788Y-60199D01*
X24530Y-57432D01*
Y-54568D01*
X23788Y-51800D01*
X22356Y-49320D01*
X20331Y-47294D01*
X17850Y-45862D01*
X15082Y-45120D01*
D02*
G37*
G36*
X-10318D02*
X-13182D01*
X-15949Y-45862D01*
X-18431Y-47294D01*
X-20456Y-49320D01*
X-21888Y-51800D01*
X-22630Y-54568D01*
Y-57432D01*
X-21888Y-60199D01*
X-20456Y-62681D01*
X-18431Y-64706D01*
X-15949Y-66139D01*
X-13182Y-66880D01*
X-10318D01*
X-7551Y-66139D01*
X-5070Y-64706D01*
X-3044Y-62681D01*
X-1611Y-60199D01*
X-870Y-57432D01*
Y-54568D01*
X-1611Y-51800D01*
X-3044Y-49320D01*
X-5070Y-47294D01*
X-7551Y-45862D01*
X-10318Y-45120D01*
D02*
G37*
G36*
X-35718D02*
X-38582D01*
X-41350Y-45862D01*
X-43830Y-47294D01*
X-45856Y-49320D01*
X-47288Y-51800D01*
X-48030Y-54568D01*
Y-57432D01*
X-47288Y-60199D01*
X-45856Y-62681D01*
X-43830Y-64706D01*
X-41350Y-66139D01*
X-38582Y-66880D01*
X-35718D01*
X-32950Y-66139D01*
X-30470Y-64706D01*
X-28444Y-62681D01*
X-27011Y-60199D01*
X-26270Y-57432D01*
Y-54568D01*
X-27011Y-51800D01*
X-28444Y-49320D01*
X-30470Y-47294D01*
X-32950Y-45862D01*
X-35718Y-45120D01*
D02*
G37*
G36*
X-111918D02*
X-114782D01*
X-117549Y-45862D01*
X-120030Y-47294D01*
X-122056Y-49320D01*
X-123489Y-51800D01*
X-124230Y-54568D01*
Y-57432D01*
X-123489Y-60199D01*
X-122056Y-62681D01*
X-120030Y-64706D01*
X-117549Y-66139D01*
X-114782Y-66880D01*
X-111918D01*
X-109150Y-66139D01*
X-106670Y-64706D01*
X-104644Y-62681D01*
X-103211Y-60199D01*
X-102470Y-57432D01*
Y-54568D01*
X-103211Y-51800D01*
X-104644Y-49320D01*
X-106670Y-47294D01*
X-109150Y-45862D01*
X-111918Y-45120D01*
D02*
G37*
G36*
X-63059Y-87801D02*
X-66056Y-88330D01*
X-68815Y-89616D01*
X-71146Y-91573D01*
X-72892Y-94066D01*
X-73933Y-96926D01*
X-74199Y-99959D01*
X-73670Y-102956D01*
X-72384Y-105715D01*
X-70427Y-108047D01*
X-67934Y-109792D01*
X-65074Y-110833D01*
X-62041Y-111099D01*
X-59044Y-110570D01*
X-56285Y-109284D01*
X-53953Y-107327D01*
X-52208Y-104834D01*
X-51167Y-101974D01*
X-50901Y-98941D01*
X-51430Y-95944D01*
X-52716Y-93185D01*
X-54673Y-90854D01*
X-57166Y-89108D01*
X-60026Y-88067D01*
X-63059Y-87801D01*
D02*
G37*
G36*
X-128073Y-85640D02*
X-165693D01*
Y-113260D01*
X-128073D01*
Y-85640D01*
D02*
G37*
G36*
X163418Y-100787D02*
X160420Y-101315D01*
X157662Y-102602D01*
X155330Y-104558D01*
X153584Y-107052D01*
X152543Y-109912D01*
X152278Y-112944D01*
X152807Y-115942D01*
X154093Y-118700D01*
X156049Y-121032D01*
X158543Y-122778D01*
X161403Y-123819D01*
X164435Y-124084D01*
X167433Y-123556D01*
X170191Y-122269D01*
X172523Y-120313D01*
X174269Y-117819D01*
X175310Y-114959D01*
X175575Y-111927D01*
X175047Y-108930D01*
X173760Y-106171D01*
X171804Y-103839D01*
X169310Y-102093D01*
X166450Y-101052D01*
X163418Y-100787D01*
D02*
G37*
G36*
X303477Y240408D02*
X300330Y239854D01*
X297435Y238503D01*
X294987Y236450D01*
X293154Y233832D01*
X292061Y230830D01*
X291783Y227647D01*
X292338Y224500D01*
X293688Y221604D01*
X295742Y219156D01*
X298359Y217324D01*
X301362Y216231D01*
X304545Y215952D01*
X307340Y216445D01*
X307896Y215254D01*
X305721Y213429D01*
X303889Y210812D01*
X302796Y207809D01*
X302517Y204626D01*
X303072Y201480D01*
X304423Y198584D01*
X306476Y196136D01*
X309094Y194303D01*
X312096Y193211D01*
X315279Y192932D01*
X317893Y193393D01*
X318278Y192171D01*
X309354Y188010D01*
X319006Y167311D01*
Y131412D01*
X237318Y49724D01*
X197856D01*
X196080Y51500D01*
X193729Y52857D01*
X191107Y53560D01*
X188393D01*
X185770Y52857D01*
X183419Y51500D01*
X181500Y49580D01*
X180143Y47229D01*
X179440Y44607D01*
Y41893D01*
X180143Y39271D01*
X181500Y36920D01*
X183419Y35000D01*
X185770Y33643D01*
X188393Y32940D01*
X191107D01*
X193729Y33643D01*
X196080Y35000D01*
X197856Y36776D01*
X240000D01*
X242478Y37268D01*
X244578Y38672D01*
X317832Y111926D01*
X319006Y111440D01*
Y-70476D01*
X255824Y-133657D01*
X253065Y-133416D01*
X250067Y-133944D01*
X247309Y-135231D01*
X244977Y-137187D01*
X243995Y-138590D01*
X177936D01*
X175458Y-139083D01*
X173358Y-140486D01*
X125818Y-188026D01*
X95394D01*
X78637Y-181926D01*
X76824Y-186906D01*
X75514Y-186792D01*
X75143Y-184684D01*
X74051Y-182343D01*
X72391Y-180364D01*
X70275Y-178883D01*
X67848Y-177999D01*
X65275Y-177774D01*
X63509Y-178086D01*
X62488Y-177181D01*
Y-153818D01*
X63833Y-153191D01*
X66164Y-151235D01*
X67910Y-148741D01*
X68951Y-145881D01*
X69217Y-142849D01*
X68688Y-139851D01*
X67402Y-137093D01*
X65445Y-134761D01*
X62952Y-133015D01*
X60092Y-131974D01*
X57059Y-131709D01*
X54062Y-132237D01*
X53615Y-132446D01*
X49769Y-128599D01*
X48172Y-127533D01*
X46289Y-127158D01*
X37557D01*
X36930Y-125814D01*
X34974Y-123482D01*
X32481Y-121736D01*
X29620Y-120695D01*
X26588Y-120430D01*
X23591Y-120959D01*
X20832Y-122245D01*
X18500Y-124202D01*
X16754Y-126695D01*
X15713Y-129555D01*
X15448Y-132587D01*
X15977Y-135585D01*
X17263Y-138343D01*
X19219Y-140675D01*
X21713Y-142421D01*
X24573Y-143462D01*
X27605Y-143727D01*
X30603Y-143199D01*
X33361Y-141912D01*
X35693Y-139956D01*
X37439Y-137463D01*
X37608Y-136999D01*
X44251D01*
X46692Y-139440D01*
X46185Y-140834D01*
X45919Y-143866D01*
X46448Y-146864D01*
X47734Y-149622D01*
X49691Y-151954D01*
X52184Y-153700D01*
X52647Y-153868D01*
Y-179521D01*
X53022Y-181404D01*
X54089Y-183001D01*
X56195Y-185108D01*
X56046Y-185518D01*
X55821Y-188091D01*
X56269Y-190635D01*
X57361Y-192976D01*
X59021Y-194955D01*
X61137Y-196436D01*
X63565Y-197320D01*
X66138Y-197545D01*
X68682Y-197096D01*
X71023Y-196005D01*
X72662Y-194629D01*
X73739Y-195383D01*
X71926Y-200363D01*
X90363Y-207074D01*
X92583Y-200974D01*
X128500D01*
X130978Y-200482D01*
X133078Y-199078D01*
X180617Y-151539D01*
X243916D01*
X245696Y-153661D01*
X247099Y-154643D01*
Y-211493D01*
X247592Y-213971D01*
X248995Y-216071D01*
X260867Y-227943D01*
X260380Y-229116D01*
X202938D01*
X186181Y-223017D01*
X184368Y-227997D01*
X183058Y-227882D01*
X182687Y-225775D01*
X181595Y-223434D01*
X179935Y-221455D01*
X177819Y-219973D01*
X175392Y-219090D01*
X172818Y-218865D01*
X170275Y-219313D01*
X167934Y-220405D01*
X165955Y-222065D01*
X164473Y-224181D01*
X163590Y-226608D01*
X163365Y-229182D01*
X163813Y-231725D01*
X164905Y-234066D01*
X166565Y-236045D01*
X168681Y-237527D01*
X171108Y-238410D01*
X173682Y-238635D01*
X176225Y-238187D01*
X178566Y-237095D01*
X180206Y-235719D01*
X181283Y-236474D01*
X179470Y-241454D01*
X197907Y-248164D01*
X200127Y-242065D01*
X274989D01*
X281237Y-248313D01*
X277153Y-257070D01*
X299150Y-267327D01*
X309407Y-245330D01*
X300482Y-241169D01*
X300867Y-239947D01*
X303481Y-240408D01*
X306664Y-240129D01*
X309666Y-239037D01*
X312284Y-237204D01*
X314337Y-234756D01*
X315688Y-231860D01*
X316243Y-228714D01*
X315964Y-225531D01*
X314871Y-222528D01*
X313039Y-219911D01*
X310864Y-218086D01*
X311420Y-216895D01*
X314215Y-217388D01*
X317398Y-217109D01*
X320401Y-216016D01*
X323018Y-214184D01*
X325072Y-211736D01*
X326422Y-208840D01*
X326977Y-205693D01*
X326699Y-202510D01*
X325606Y-199508D01*
X323773Y-196891D01*
X321325Y-194837D01*
X318430Y-193486D01*
X315283Y-192931D01*
X312100Y-193210D01*
X309097Y-194303D01*
X306480Y-196136D01*
X304426Y-198583D01*
X303076Y-201479D01*
X302521Y-204626D01*
X302799Y-207809D01*
X303892Y-210811D01*
X305725Y-213429D01*
X307899Y-215253D01*
X307344Y-216445D01*
X304548Y-215952D01*
X301365Y-216230D01*
X298363Y-217323D01*
X295746Y-219156D01*
X293692Y-221603D01*
X292341Y-224499D01*
X291786Y-227646D01*
X292065Y-230829D01*
X293158Y-233832D01*
X294990Y-236449D01*
X297024Y-238155D01*
X296335Y-239235D01*
X287410Y-235074D01*
X287410Y-235074D01*
X286475Y-235238D01*
X260048Y-208812D01*
Y-154722D01*
X262170Y-152942D01*
X263916Y-150448D01*
X264957Y-147588D01*
X265222Y-144556D01*
X264925Y-142869D01*
X330058Y-77736D01*
X331462Y-75635D01*
X331954Y-73158D01*
Y128730D01*
Y171770D01*
X341606Y176270D01*
X331350Y198267D01*
X322425Y194105D01*
X321736Y195185D01*
X323770Y196891D01*
X325602Y199508D01*
X326695Y202511D01*
X326974Y205694D01*
X326419Y208841D01*
X325068Y211737D01*
X323014Y214184D01*
X320397Y216017D01*
X317395Y217110D01*
X314212Y217388D01*
X311416Y216895D01*
X310861Y218087D01*
X313035Y219911D01*
X314868Y222529D01*
X315961Y225531D01*
X316239Y228714D01*
X315684Y231861D01*
X314334Y234757D01*
X312280Y237204D01*
X309663Y239037D01*
X306660Y240130D01*
X303477Y240408D01*
D02*
G37*
G36*
X117518Y-120904D02*
X110637Y-139811D01*
X129543Y-146692D01*
X136425Y-127785D01*
X117518Y-120904D01*
D02*
G37*
G36*
X-64482Y-128154D02*
X-71363Y-147061D01*
X-52457Y-153942D01*
X-45575Y-135035D01*
X-64482Y-128154D01*
D02*
G37*
G36*
X81491Y-140601D02*
X78494Y-141130D01*
X75735Y-142416D01*
X73404Y-144373D01*
X71658Y-146866D01*
X70617Y-149726D01*
X70351Y-152759D01*
X70880Y-155756D01*
X72166Y-158515D01*
X74123Y-160846D01*
X76616Y-162592D01*
X79476Y-163633D01*
X82509Y-163899D01*
X85506Y-163370D01*
X88265Y-162084D01*
X90596Y-160127D01*
X92342Y-157634D01*
X93383Y-154774D01*
X93649Y-151741D01*
X93120Y-148744D01*
X91834Y-145985D01*
X89877Y-143653D01*
X87384Y-141908D01*
X84524Y-140867D01*
X81491Y-140601D01*
D02*
G37*
G36*
X217057Y-157863D02*
X214449Y-158323D01*
X212048Y-159442D01*
X210019Y-161145D01*
X208500Y-163315D01*
X207594Y-165804D01*
X207363Y-168443D01*
X207823Y-171051D01*
X208942Y-173452D01*
X210645Y-175481D01*
X212815Y-177000D01*
X215304Y-177906D01*
X217943Y-178137D01*
X220551Y-177677D01*
X222952Y-176558D01*
X224981Y-174855D01*
X226500Y-172685D01*
X227406Y-170196D01*
X227637Y-167557D01*
X227177Y-164949D01*
X226058Y-162548D01*
X224355Y-160519D01*
X222185Y-159000D01*
X219696Y-158094D01*
X217057Y-157863D01*
D02*
G37*
G36*
X35057Y-165113D02*
X32449Y-165573D01*
X30048Y-166692D01*
X28019Y-168395D01*
X26500Y-170565D01*
X25594Y-173054D01*
X25363Y-175693D01*
X25823Y-178301D01*
X26942Y-180702D01*
X28645Y-182731D01*
X30815Y-184250D01*
X33304Y-185156D01*
X35943Y-185387D01*
X38551Y-184927D01*
X40952Y-183808D01*
X42981Y-182105D01*
X44500Y-179935D01*
X45406Y-177446D01*
X45637Y-174807D01*
X45177Y-172199D01*
X44058Y-169798D01*
X42355Y-167769D01*
X40185Y-166250D01*
X37696Y-165344D01*
X35057Y-165113D01*
D02*
G37*
G36*
X178809Y-176209D02*
X175812Y-176737D01*
X173053Y-178024D01*
X170722Y-179980D01*
X168976Y-182474D01*
X167935Y-185334D01*
X167669Y-188366D01*
X168198Y-191364D01*
X169484Y-194122D01*
X171441Y-196454D01*
X173934Y-198200D01*
X176794Y-199241D01*
X179827Y-199506D01*
X182824Y-198978D01*
X185583Y-197691D01*
X187915Y-195735D01*
X189660Y-193241D01*
X190701Y-190381D01*
X190967Y-187349D01*
X190438Y-184351D01*
X189152Y-181593D01*
X187195Y-179261D01*
X184702Y-177515D01*
X181842Y-176474D01*
X178809Y-176209D01*
D02*
G37*
G36*
X203241Y-185101D02*
X200244Y-185630D01*
X197485Y-186916D01*
X195154Y-188873D01*
X193408Y-191366D01*
X192367Y-194226D01*
X192101Y-197259D01*
X192630Y-200256D01*
X193916Y-203015D01*
X195873Y-205347D01*
X198366Y-207092D01*
X201226Y-208133D01*
X204259Y-208399D01*
X207256Y-207870D01*
X210015Y-206584D01*
X212346Y-204627D01*
X214092Y-202134D01*
X215133Y-199274D01*
X215399Y-196241D01*
X214870Y-193244D01*
X213584Y-190485D01*
X211627Y-188153D01*
X209134Y-186408D01*
X206274Y-185367D01*
X203241Y-185101D01*
D02*
G37*
%LPD*%
D14*
X-220000Y-133000D02*
D03*
Y-107600D02*
D03*
Y-82200D02*
D03*
X-220500Y52850D02*
D03*
Y78250D02*
D03*
Y103650D02*
D03*
X325484Y-182139D02*
D03*
X314749Y-205160D02*
D03*
X304014Y-228180D02*
D03*
X293277Y251201D02*
D03*
X304011Y228180D02*
D03*
X314746Y205160D02*
D03*
D15*
X-220000Y-56800D02*
D03*
X-220500Y129050D02*
D03*
D16*
X-219985Y10990D02*
D03*
D17*
Y-9010D02*
D03*
X173250Y-228750D02*
D03*
X65706Y-187660D02*
D03*
X199016Y233589D02*
D03*
X108516Y199338D02*
D03*
D18*
X215000Y138250D02*
D03*
X152250Y138250D02*
D03*
D19*
X215000Y164250D02*
D03*
Y190250D02*
D03*
X152250Y164250D02*
D03*
Y190250D02*
D03*
X163927Y-112436D02*
D03*
X253573Y-145064D02*
D03*
X27097Y-132079D02*
D03*
X-62550Y-99450D02*
D03*
X82000Y-152250D02*
D03*
X57568Y-143357D02*
D03*
X203750Y-196750D02*
D03*
X179318Y-187857D02*
D03*
X252500Y118600D02*
D03*
Y214000D02*
D03*
X-35150Y153500D02*
D03*
X60250D02*
D03*
D20*
X192044Y-235590D02*
D03*
X84500Y-194500D02*
D03*
D21*
X106432Y-161143D02*
D03*
X228182Y-205643D02*
D03*
D22*
X189750Y8250D02*
D03*
D23*
Y43250D02*
D03*
D24*
X-146883Y-99450D02*
D03*
Y43550D02*
D03*
X121117D02*
D03*
Y-99450D02*
D03*
D25*
X242250Y-56000D02*
D03*
D26*
X216850D02*
D03*
X191450D02*
D03*
X166050D02*
D03*
X140650D02*
D03*
X115250D02*
D03*
X89850D02*
D03*
X64450D02*
D03*
X39050D02*
D03*
X13650D02*
D03*
X-11750D02*
D03*
X-37150D02*
D03*
X-62550D02*
D03*
X-87950D02*
D03*
X-113350D02*
D03*
Y96400D02*
D03*
X-87950D02*
D03*
X-62550D02*
D03*
X-37150D02*
D03*
X-11750D02*
D03*
X13650D02*
D03*
X39050D02*
D03*
X64450D02*
D03*
X89850D02*
D03*
X115250D02*
D03*
X140650D02*
D03*
X191450D02*
D03*
X216850D02*
D03*
X242250D02*
D03*
X166050D02*
D03*
D27*
X293280Y-251200D02*
D03*
D28*
X325480Y182140D02*
D03*
D29*
X35500Y-175250D02*
D03*
X289500Y152750D02*
D03*
X217500Y-168000D02*
D03*
X112250Y125500D02*
D03*
D30*
X-58469Y-141048D02*
D03*
X123531Y-133798D02*
D03*
D31*
X180222Y226748D02*
D03*
X89722Y192498D02*
D03*
D32*
X289500Y52750D02*
D03*
D33*
X12250Y125500D02*
D03*
D34*
X-220000Y-56800D02*
X-192000Y-28800D01*
X-220000Y133000D02*
X-192000Y105000D01*
Y-28800D02*
Y105000D01*
X180222Y110572D02*
Y118600D01*
Y226748D01*
Y118600D02*
X252500D01*
X253573Y-145064D02*
X325480Y-73158D01*
Y128730D01*
X189750Y43250D02*
X240000D01*
X325480Y128730D02*
Y182140D01*
X240000Y43250D02*
X325480Y128730D01*
X277670Y-235590D02*
X293280Y-251200D01*
X253573Y-211493D02*
X293280Y-251200D01*
X293280D02*
X293280D01*
X192044Y-235590D02*
X277670D01*
X128500Y-194500D02*
X177936Y-145064D01*
X253573D01*
X84500Y-194500D02*
X128500D01*
X253573Y-211493D02*
Y-145064D01*
X278000Y164250D02*
X289500Y152750D01*
X215000Y164250D02*
X278000D01*
X215000Y190250D02*
X228750D01*
X252500Y214000D01*
X215000Y190250D02*
Y217604D01*
X199016Y233589D02*
X215000Y217604D01*
X89722Y192498D02*
X91823Y194599D01*
X59998Y192498D02*
X89722D01*
X91823Y202290D02*
X105534Y216000D01*
X169474D01*
X91823Y194599D02*
Y202290D01*
X169474Y216000D02*
X180222Y226748D01*
X-35150Y153500D02*
X21000D01*
X59998Y192498D01*
X112250Y139500D02*
X137000Y164250D01*
X152250D01*
X112250Y125500D02*
Y139500D01*
X89994Y155494D02*
X108516Y174016D01*
Y199338D01*
X62244Y155494D02*
X89994D01*
X60250Y153500D02*
X62244Y155494D01*
X140342Y199338D02*
X149430Y190250D01*
X108516Y199338D02*
X140342D01*
X149430Y190250D02*
X152250D01*
X166050Y96400D02*
X180222Y110572D01*
D36*
X-164750Y78000D02*
X-131750D01*
X-113350Y96400D01*
X289500Y24500D02*
Y52750D01*
X167483Y-30250D02*
X234750D01*
X289500Y24500D01*
X141733Y-56000D02*
X167483Y-30250D01*
X140650Y-56000D02*
X141733D01*
X57568Y-179521D02*
X65706Y-187660D01*
X57568Y-179521D02*
Y-143357D01*
X46289Y-132079D02*
X57568Y-143357D01*
X27097Y-132079D02*
X46289D01*
X-126000Y-127000D02*
X-87950Y-88950D01*
Y-56000D01*
X-179500Y-127000D02*
X-126000D01*
X-220000Y-107600D02*
X-198900D01*
X-179500Y-127000D01*
X-143500Y-38750D02*
X-79800D01*
X-62550Y-56000D01*
X-220000Y-82200D02*
X-186950D01*
X-143500Y-38750D01*
X12250Y125500D02*
X27000Y110750D01*
Y32250D02*
X115250Y-56000D01*
X27000Y32250D02*
Y110750D01*
D37*
X-164750Y78000D02*
D03*
X287750Y-66250D02*
D03*
X287250Y-156000D02*
D03*
X294500Y-202500D02*
D03*
X289500Y187750D02*
D03*
X289750Y119750D02*
D03*
X271250Y24750D02*
D03*
X254250Y9500D02*
D03*
X238250Y-6000D02*
D03*
M02*
