G04*
G04 #@! TF.GenerationSoftware,Altium Limited,Altium Designer,24.3.1 (35)*
G04*
G04 Layer_Color=16711935*
%FSLAX44Y44*%
%MOMM*%
G71*
G04*
G04 #@! TF.SameCoordinates,746B9C55-4A18-4BC9-BEBC-B74D21388F8E*
G04*
G04*
G04 #@! TF.FilePolarity,Negative*
G04*
G01*
G75*
%ADD14C,1.6650*%
%ADD15R,1.6650X1.6650*%
%ADD16R,1.2000X1.2000*%
%ADD17C,1.2000*%
%ADD18R,1.5500X1.5500*%
%ADD19C,1.5500*%
%ADD20P,1.6971X4X385.0*%
%ADD21P,2.1920X4X385.0*%
%ADD22R,1.3000X1.3000*%
%ADD23C,1.3000*%
%ADD24R,3.0000X2.0000*%
%ADD25R,1.4140X1.4140*%
%ADD26C,1.4140*%
%ADD27P,2.3547X4X110.0*%
%ADD28P,2.3547X4X160.0*%
%ADD29C,1.2500*%
%ADD30P,1.7678X4X385.0*%
%ADD31P,1.6971X4X245.0*%
%ADD32R,1.2500X1.2500*%
%ADD33R,1.2500X1.2500*%
D14*
X-220000Y-133000D02*
D03*
Y-107600D02*
D03*
Y-82200D02*
D03*
X-220500Y52850D02*
D03*
Y78250D02*
D03*
Y103650D02*
D03*
X325484Y-182139D02*
D03*
X314749Y-205160D02*
D03*
X304014Y-228180D02*
D03*
X293277Y251201D02*
D03*
X304011Y228180D02*
D03*
X314746Y205160D02*
D03*
D15*
X-220000Y-56800D02*
D03*
X-220500Y129050D02*
D03*
D16*
X-219985Y10990D02*
D03*
D17*
Y-9010D02*
D03*
X173250Y-228750D02*
D03*
X65706Y-187660D02*
D03*
X199016Y233589D02*
D03*
X108516Y199338D02*
D03*
D18*
X215000Y138250D02*
D03*
X152250Y138250D02*
D03*
D19*
X215000Y164250D02*
D03*
Y190250D02*
D03*
X152250Y164250D02*
D03*
Y190250D02*
D03*
X163927Y-112436D02*
D03*
X253573Y-145064D02*
D03*
X27097Y-132079D02*
D03*
X-62550Y-99450D02*
D03*
X82000Y-152250D02*
D03*
X57568Y-143357D02*
D03*
X203750Y-196750D02*
D03*
X179318Y-187857D02*
D03*
X252500Y118600D02*
D03*
Y214000D02*
D03*
X-35150Y153500D02*
D03*
X60250D02*
D03*
D20*
X192044Y-235590D02*
D03*
X84500Y-194500D02*
D03*
D21*
X106432Y-161143D02*
D03*
X228182Y-205643D02*
D03*
D22*
X189750Y8250D02*
D03*
D23*
Y43250D02*
D03*
D24*
X-146883Y-99450D02*
D03*
Y43550D02*
D03*
X121117D02*
D03*
Y-99450D02*
D03*
D25*
X242250Y-56000D02*
D03*
D26*
X216850D02*
D03*
X191450D02*
D03*
X166050D02*
D03*
X140650D02*
D03*
X115250D02*
D03*
X89850D02*
D03*
X64450D02*
D03*
X39050D02*
D03*
X13650D02*
D03*
X-11750D02*
D03*
X-37150D02*
D03*
X-62550D02*
D03*
X-87950D02*
D03*
X-113350D02*
D03*
Y96400D02*
D03*
X-87950D02*
D03*
X-62550D02*
D03*
X-37150D02*
D03*
X-11750D02*
D03*
X13650D02*
D03*
X39050D02*
D03*
X64450D02*
D03*
X89850D02*
D03*
X115250D02*
D03*
X140650D02*
D03*
X191450D02*
D03*
X216850D02*
D03*
X242250D02*
D03*
X166050D02*
D03*
D27*
X293280Y-251200D02*
D03*
D28*
X325480Y182140D02*
D03*
D29*
X35500Y-175250D02*
D03*
X289500Y152750D02*
D03*
X217500Y-168000D02*
D03*
X112250Y125500D02*
D03*
D30*
X-58469Y-141048D02*
D03*
X123531Y-133798D02*
D03*
D31*
X180222Y226748D02*
D03*
X89722Y192498D02*
D03*
D32*
X289500Y52750D02*
D03*
D33*
X12250Y125500D02*
D03*
M02*
