M48
;Layer_Color=9474304
;FILE_FORMAT=2:5
INCH,LZ
;TYPE=PLATED
T01F00S00C0.01181
T02F00S00C0.02756
T03F00S00C0.02953
T04F00S00C0.03150
T05F00S00C0.03598
T06F00S00C0.03937
T07F00S00C0.04134
T08F00S00C0.04370
%
T01
X-0064862Y0030709
X0093799Y-0002362
X0100098Y000374
X0106791Y0009744
X0113287Y-0026083
X0113091Y-0061417
X0115945Y-0079724
X0114075Y0047146
X0113976Y0073917
T02
X0068209Y-0090059
X0075608Y-0092752
X-0086608Y-0003547
X-0086608Y0004327
X0025869Y-0073882
X0033268Y-0076575
X0035324Y0075787
X0042723Y007848
X0070954Y0089271
X0078353Y0091964
T03
X-0023019Y-0055531
X0013976Y-0068996
X0048634Y-0052676
X008563Y-0066142
X0113976Y0020768
X0113976Y0060138
X0044193Y0049409
X0004823Y0049409
T04
X0074705Y0003248
X0074705Y0017028
T05
X-0044626Y-0022047
X-0034626Y-0022047
X-0034626Y0037953
X-0044626Y0037953
X-0024626Y0037953
X-0014626Y0037953
X-0004626Y0037953
X0005374Y0037953
X0015374Y0037953
X0025374Y0037953
X0035374Y0037953
X0045374Y0037953
X0055374Y0037953
X0065374Y0037953
X0075374Y0037953
X0085374Y0037953
X0095374Y0037953
X0095374Y-0022047
X0085374Y-0022047
X0075374Y-0022047
X0065374Y-0022047
X0055374Y-0022047
X0045374Y-0022047
X0035374Y-0022047
X0025374Y-0022047
X0015374Y-0022047
X0005374Y-0022047
X-0004626Y-0022047
X-0014626Y-0022047
X-0024626Y-0022047
T06
X-0057828Y-0039154
X-0057828Y0017146
X0047684Y0017146
X0047684Y-0039154
T07
X-0024626Y-0039154
X0010668Y-0051999
X0022665Y-005644
X0032283Y-0059941
X0041902Y-0063442
X0070598Y-007396
X0080216Y-0077461
X0089835Y-0080962
X0099832Y-0057112
X0064538Y-0044266
X0059941Y0054429
X0059941Y0064665
X0084646Y0064665
X0084646Y0054429
X009941Y0046693
X002372Y0060433
X-0013839Y0060433
X0059941Y0074902
X0084646Y0074902
X009941Y0084252
T08
X0115465Y-0098898
X0119691Y-0089835
X-0086614Y-0052362
X-0086614Y-0042362
X-0086614Y-0032362
X-0086614Y-0022362
X-0086811Y0020807
X-0086811Y0030807
X-0086811Y0040807
X-0086811Y0050807
X0128142Y0071709
X0128143Y-0071708
X0123917Y-0080771
X0123916Y0080772
X0119689Y0089835
X0115463Y0098898
M30
